# xmcd
#
# Track frame offsets:
#	150
#	13402
#	29903
#	44145
#	58046
#	73549
#	93608
#	131137
#	156282
#	176713
#	219340
#	250090
#	305561
#
# Disc length: 4177 seconds
#
# Revision: 0
# Processed by: cddbd v1.5.2PL0 Copyright (c) Steve Scherf et al.
# Submitted via: audiograbber 1.83.01
#
DISCID=ca104f0d
DTITLE=Driftin - Moon in June
DYEAR=2008
DGENRE=Blues
TTITLE0=Walkin on Sunset
TTITLE1=Baby what you want me to do
TTITLE2=Jumping at Shadows #1
TTITLE3=Jumping at Shadows #2
TTITLE4=Sweet Home Chicago
TTITLE5=Hi Heel Sneakers
TTITLE6=Zorrows Sorrows
TTITLE7=Kapellmeiser Blues
TTITLE8=Clean Love
TTITLE9=Trance
TTITLE10=Wireless Funk
TTITLE11=CHE Forever
TTITLE12=June Moon
EXTD=
EXTT0=
EXTT1=
EXTT2=
EXTT3=
EXTT4=
EXTT5=
EXTT6=
EXTT7=
EXTT8=
EXTT9=
EXTT10=
EXTT11=
EXTT12=
PLAYORDER=
